<svg version="1.2" xmlns="http://www.w3.org/2000/svg" viewBox="0 0 100 256" width="100" height="256"><defs><clipPath clipPathUnits="userSpaceOnUse" id="cp1"><path d="m-1169-1925h1440v4774h-1440z"/></clipPath></defs><style>.a{fill:none;stroke:#84829a;stroke-miterlimit:100}</style><g clip-path="url(#cp1)"><path fill-rule="evenodd" class="a" d="m32.5 67.4c-5.8 3.5-18 9.6-20 5.3-2.5-5.3-4-16.5 16.5-26.1 5.4-2.3 13.2-4.6 21.3-5.2-4.8 10.3-12.2 20-17.8 26zm-12 46.8c-13.4 0.6-32.6-5.8-2.5-35.6 9.5-4.6 32.6-14 48.7-14.4 3.9 0.8 9.3 3 14.1 7.1 6 5.1 10.9 13.1 10.2 25 8 9 6.8 21.5 3.8 29.1q-0.4 0.7-0.8 1.3 1.6 2.3 3.3 5.1c1.3 6.4 1.3 16.7-4 24.4 1.9 7.2 2 17.5-4.9 24.7 2.6 8.9 1 18.9-10.7 27.6-3 1.1-8.2 2.1-14.5 2 3.2 4.5 5.4 8.9 6 12.9 0.8 8.8-1.4 27.3-17.1 30.3-4 0.7-13.9 0.6-21.6-5.3l2-47.9-2-20.8v-37.3l-4.6-13.1-16.9 2.5zm10 28.2v37.3m0 0l2 20.7"/></g></svg>